<?xml version="1.0" encoding="UTF-8" standalone="no"?>
<!DOCTYPE svg PUBLIC "-//W3C//DTD SVG 1.1//EN"
 "http://www.w3.org/Graphics/SVG/1.1/DTD/svg11.dtd">
<!-- Generated by graphviz version 2.43.0 (0)
 -->
<!-- Title: classes Pages: 1 -->
<svg width="444pt" height="557pt"
 viewBox="0.00 0.00 444.00 557.00" xmlns="http://www.w3.org/2000/svg" xmlns:xlink="http://www.w3.org/1999/xlink">
<g id="graph0" class="graph" transform="scale(1 1) rotate(0) translate(4 553)">
<title>classes</title>
<polygon fill="white" stroke="transparent" points="-4,4 -4,-553 440,-553 440,4 -4,4"/>
<!-- Container -->
<g id="node1" class="node">
<title>Container</title>
<polygon fill="#9ec6e0" stroke="#9ec6e0" points="154.5,-90 90.5,-90 90.5,-54 154.5,-54 154.5,-90"/>
<text text-anchor="middle" x="122.5" y="-69.5" font-family="Sans" font-size="10.00" fill="#000000">Container</text>
</g>
<!-- Type -->
<g id="node4" class="node">
<title>Type</title>
<polygon fill="#9ec6e0" stroke="#9ec6e0" points="54,-279 0,-279 0,-243 54,-243 54,-279"/>
<text text-anchor="middle" x="27" y="-258.5" font-family="Sans" font-size="10.00" fill="#000000">Type</text>
</g>
<!-- Container&#45;&gt;Type -->
<g id="edge2" class="edge">
<title>Container&#45;&gt;Type</title>
<path fill="none" stroke="black" d="M97.48,-90.28C94.74,-93.01 92.16,-95.94 90,-99 60.45,-140.94 42.77,-198.81 34.25,-232.83"/>
<polygon fill="black" stroke="black" points="30.84,-232.04 31.9,-242.58 37.65,-233.68 30.84,-232.04"/>
</g>
<!-- Repr -->
<g id="node2" class="node">
<title>Repr</title>
<polygon fill="#9ec6e0" stroke="#9ec6e0" points="149.5,-495 95.5,-495 95.5,-459 149.5,-459 149.5,-495"/>
<text text-anchor="middle" x="122.5" y="-474.5" font-family="Sans" font-size="10.00" fill="#000000">Repr</text>
</g>
<!-- Repr&#45;&gt;Type -->
<g id="edge12" class="edge">
<title>Repr&#45;&gt;Type</title>
<path fill="none" stroke="black" d="M109.95,-458.91C103.63,-448.61 95.91,-435.33 90,-423 68.16,-377.42 48.31,-321.97 37.23,-289.19"/>
<polygon fill="black" stroke="black" points="40.44,-287.75 33.94,-279.38 33.8,-289.98 40.44,-287.75"/>
</g>
<!-- Scalar -->
<g id="node3" class="node">
<title>Scalar</title>
<polygon fill="#9ec6e0" stroke="#9ec6e0" points="149.5,-414 95.5,-414 95.5,-378 149.5,-378 149.5,-414"/>
<text text-anchor="middle" x="122.5" y="-393.5" font-family="Sans" font-size="10.00" fill="#000000">Scalar</text>
</g>
<!-- Scalar&#45;&gt;Type -->
<g id="edge13" class="edge">
<title>Scalar&#45;&gt;Type</title>
<path fill="none" stroke="black" d="M98.57,-378C95.53,-375.15 92.57,-372.11 90,-369 69.25,-343.94 51.47,-311.02 40.34,-288.14"/>
<polygon fill="black" stroke="black" points="43.44,-286.53 35.98,-279 37.12,-289.54 43.44,-286.53"/>
</g>
<!-- Bool -->
<g id="node5" class="node">
<title>Bool</title>
<polygon fill="#2980b9" stroke="#2980b9" points="436,-387 382,-387 382,-351 436,-351 436,-387"/>
<text text-anchor="middle" x="409" y="-366.5" font-family="Sans" font-size="10.00" fill="#ffffff">Bool</text>
</g>
<!-- Int -->
<g id="node12" class="node">
<title>Int</title>
<polygon fill="#2980b9" stroke="#2980b9" points="346,-387 292,-387 292,-351 346,-351 346,-387"/>
<text text-anchor="middle" x="319" y="-366.5" font-family="Sans" font-size="10.00" fill="#ffffff">Int</text>
</g>
<!-- Bool&#45;&gt;Int -->
<g id="edge1" class="edge">
<title>Bool&#45;&gt;Int</title>
<path fill="none" stroke="black" d="M381.6,-369C373.61,-369 364.69,-369 356.18,-369"/>
<polygon fill="black" stroke="black" points="356.08,-365.5 346.08,-369 356.08,-372.5 356.08,-365.5"/>
</g>
<!-- DateTime -->
<g id="node6" class="node">
<title>DateTime</title>
<polygon fill="#2980b9" stroke="#2980b9" points="256,-441 191,-441 191,-405 256,-405 256,-441"/>
<text text-anchor="middle" x="223.5" y="-420.5" font-family="Sans" font-size="10.00" fill="#ffffff">DateTime</text>
</g>
<!-- DateTime&#45;&gt;Scalar -->
<g id="edge3" class="edge">
<title>DateTime&#45;&gt;Scalar</title>
<path fill="none" stroke="black" d="M190.9,-414.38C180.89,-411.65 169.74,-408.61 159.44,-405.8"/>
<polygon fill="black" stroke="black" points="160.07,-402.35 149.5,-403.09 158.23,-409.1 160.07,-402.35"/>
</g>
<!-- Dict -->
<g id="node7" class="node">
<title>Dict</title>
<polygon fill="#2980b9" stroke="#2980b9" points="250.5,-144 196.5,-144 196.5,-108 250.5,-108 250.5,-144"/>
<text text-anchor="middle" x="223.5" y="-123.5" font-family="Sans" font-size="10.00" fill="#ffffff">Dict</text>
</g>
<!-- Dict&#45;&gt;Container -->
<g id="edge4" class="edge">
<title>Dict&#45;&gt;Container</title>
<path fill="none" stroke="black" d="M196.49,-111.81C186.46,-106.34 174.76,-99.96 163.71,-93.93"/>
<polygon fill="black" stroke="black" points="165.08,-90.69 154.62,-88.97 161.72,-96.84 165.08,-90.69"/>
</g>
<!-- DictField -->
<g id="node8" class="node">
<title>DictField</title>
<polygon fill="#2980b9" stroke="#2980b9" points="152,-360 93,-360 93,-324 152,-324 152,-360"/>
<text text-anchor="middle" x="122.5" y="-339.5" font-family="Sans" font-size="10.00" fill="#ffffff">DictField</text>
</g>
<!-- DictField&#45;&gt;Type -->
<g id="edge5" class="edge">
<title>DictField&#45;&gt;Type</title>
<path fill="none" stroke="black" d="M100.13,-323.72C96.74,-320.81 93.27,-317.83 90,-315 78.98,-305.48 66.9,-294.97 56.36,-285.78"/>
<polygon fill="black" stroke="black" points="58.47,-282.98 48.63,-279.04 53.87,-288.25 58.47,-282.98"/>
</g>
<!-- Empty -->
<g id="node9" class="node">
<title>Empty</title>
<polygon fill="#2980b9" stroke="#2980b9" points="149.5,-306 95.5,-306 95.5,-270 149.5,-270 149.5,-306"/>
<text text-anchor="middle" x="122.5" y="-285.5" font-family="Sans" font-size="10.00" fill="#ffffff">Empty</text>
</g>
<!-- Empty&#45;&gt;Type -->
<g id="edge6" class="edge">
<title>Empty&#45;&gt;Type</title>
<path fill="none" stroke="black" d="M95.46,-280.48C85.71,-277.66 74.46,-274.42 63.97,-271.39"/>
<polygon fill="black" stroke="black" points="64.81,-267.99 54.23,-268.57 62.87,-274.71 64.81,-267.99"/>
</g>
<!-- Field -->
<g id="node10" class="node">
<title>Field</title>
<polygon fill="#2980b9" stroke="#2980b9" points="149.5,-252 95.5,-252 95.5,-216 149.5,-216 149.5,-252"/>
<text text-anchor="middle" x="122.5" y="-231.5" font-family="Sans" font-size="10.00" fill="#ffffff">Field</text>
</g>
<!-- Field&#45;&gt;Type -->
<g id="edge7" class="edge">
<title>Field&#45;&gt;Type</title>
<path fill="none" stroke="black" d="M95.46,-241.52C85.71,-244.34 74.46,-247.58 63.97,-250.61"/>
<polygon fill="black" stroke="black" points="62.87,-247.29 54.23,-253.43 64.81,-254.01 62.87,-247.29"/>
</g>
<!-- Float -->
<g id="node11" class="node">
<title>Float</title>
<polygon fill="#2980b9" stroke="#2980b9" points="250.5,-387 196.5,-387 196.5,-351 250.5,-351 250.5,-387"/>
<text text-anchor="middle" x="223.5" y="-366.5" font-family="Sans" font-size="10.00" fill="#ffffff">Float</text>
</g>
<!-- Float&#45;&gt;Scalar -->
<g id="edge8" class="edge">
<title>Float&#45;&gt;Scalar</title>
<path fill="none" stroke="black" d="M196.49,-376.09C185.21,-379.17 171.81,-382.82 159.59,-386.16"/>
<polygon fill="black" stroke="black" points="158.41,-382.85 149.68,-388.86 160.25,-389.61 158.41,-382.85"/>
</g>
<!-- Int&#45;&gt;Float -->
<g id="edge9" class="edge">
<title>Int&#45;&gt;Float</title>
<path fill="none" stroke="black" d="M291.96,-369C282.31,-369 271.19,-369 260.8,-369"/>
<polygon fill="black" stroke="black" points="260.73,-365.5 250.73,-369 260.73,-372.5 260.73,-365.5"/>
</g>
<!-- List -->
<g id="node13" class="node">
<title>List</title>
<polygon fill="#2980b9" stroke="#2980b9" points="250.5,-90 196.5,-90 196.5,-54 250.5,-54 250.5,-90"/>
<text text-anchor="middle" x="223.5" y="-69.5" font-family="Sans" font-size="10.00" fill="#ffffff">List</text>
</g>
<!-- List&#45;&gt;Container -->
<g id="edge10" class="edge">
<title>List&#45;&gt;Container</title>
<path fill="none" stroke="black" d="M196.49,-72C186.76,-72 175.46,-72 164.7,-72"/>
<polygon fill="black" stroke="black" points="164.62,-68.5 154.62,-72 164.62,-75.5 164.62,-68.5"/>
</g>
<!-- NumRepr -->
<g id="node14" class="node">
<title>NumRepr</title>
<polygon fill="#2980b9" stroke="#2980b9" points="254.5,-549 192.5,-549 192.5,-513 254.5,-513 254.5,-549"/>
<text text-anchor="middle" x="223.5" y="-528.5" font-family="Sans" font-size="10.00" fill="#ffffff">NumRepr</text>
</g>
<!-- NumRepr&#45;&gt;Repr -->
<g id="edge11" class="edge">
<title>NumRepr&#45;&gt;Repr</title>
<path fill="none" stroke="black" d="M192.26,-514.5C181.6,-508.69 169.52,-502.1 158.5,-496.09"/>
<polygon fill="black" stroke="black" points="160,-492.92 149.54,-491.21 156.65,-499.07 160,-492.92"/>
</g>
<!-- Stats -->
<g id="node15" class="node">
<title>Stats</title>
<polygon fill="#2980b9" stroke="#2980b9" points="436,-441 382,-441 382,-405 436,-405 436,-441"/>
<text text-anchor="middle" x="409" y="-420.5" font-family="Sans" font-size="10.00" fill="#ffffff">Stats</text>
</g>
<!-- Str -->
<g id="node16" class="node">
<title>Str</title>
<polygon fill="#2980b9" stroke="#2980b9" points="250.5,-333 196.5,-333 196.5,-297 250.5,-297 250.5,-333"/>
<text text-anchor="middle" x="223.5" y="-312.5" font-family="Sans" font-size="10.00" fill="#ffffff">Str</text>
</g>
<!-- Str&#45;&gt;Scalar -->
<g id="edge14" class="edge">
<title>Str&#45;&gt;Scalar</title>
<path fill="none" stroke="black" d="M200.04,-333.38C186.27,-344.64 168.48,-359.2 153.51,-371.44"/>
<polygon fill="black" stroke="black" points="151.06,-368.93 145.53,-377.97 155.49,-374.35 151.06,-368.93"/>
</g>
<!-- StrRepr -->
<g id="node17" class="node">
<title>StrRepr</title>
<polygon fill="#2980b9" stroke="#2980b9" points="250.5,-495 196.5,-495 196.5,-459 250.5,-459 250.5,-495"/>
<text text-anchor="middle" x="223.5" y="-474.5" font-family="Sans" font-size="10.00" fill="#ffffff">StrRepr</text>
</g>
<!-- StrRepr&#45;&gt;Repr -->
<g id="edge15" class="edge">
<title>StrRepr&#45;&gt;Repr</title>
<path fill="none" stroke="black" d="M196.49,-477C185.32,-477 172.08,-477 159.96,-477"/>
<polygon fill="black" stroke="black" points="159.68,-473.5 149.68,-477 159.68,-480.5 159.68,-473.5"/>
</g>
<!-- Tuple -->
<g id="node18" class="node">
<title>Tuple</title>
<polygon fill="#2980b9" stroke="#2980b9" points="250.5,-36 196.5,-36 196.5,0 250.5,0 250.5,-36"/>
<text text-anchor="middle" x="223.5" y="-15.5" font-family="Sans" font-size="10.00" fill="#ffffff">Tuple</text>
</g>
<!-- Tuple&#45;&gt;Container -->
<g id="edge16" class="edge">
<title>Tuple&#45;&gt;Container</title>
<path fill="none" stroke="black" d="M196.49,-32.19C186.46,-37.66 174.76,-44.04 163.71,-50.07"/>
<polygon fill="black" stroke="black" points="161.72,-47.16 154.62,-55.03 165.08,-53.31 161.72,-47.16"/>
</g>
<!-- TupleField -->
<g id="node19" class="node">
<title>TupleField</title>
<polygon fill="#2980b9" stroke="#2980b9" points="155,-198 90,-198 90,-162 155,-162 155,-198"/>
<text text-anchor="middle" x="122.5" y="-177.5" font-family="Sans" font-size="10.00" fill="#ffffff">TupleField</text>
</g>
<!-- TupleField&#45;&gt;Type -->
<g id="edge17" class="edge">
<title>TupleField&#45;&gt;Type</title>
<path fill="none" stroke="black" d="M100.13,-198.28C96.74,-201.19 93.27,-204.17 90,-207 78.98,-216.52 66.9,-227.03 56.36,-236.22"/>
<polygon fill="black" stroke="black" points="53.87,-233.75 48.63,-242.96 58.47,-239.02 53.87,-233.75"/>
</g>
<!-- URL -->
<g id="node20" class="node">
<title>URL</title>
<polygon fill="#2980b9" stroke="#2980b9" points="346,-333 292,-333 292,-297 346,-297 346,-333"/>
<text text-anchor="middle" x="319" y="-312.5" font-family="Sans" font-size="10.00" fill="#ffffff">URL</text>
</g>
<!-- URL&#45;&gt;Str -->
<g id="edge18" class="edge">
<title>URL&#45;&gt;Str</title>
<path fill="none" stroke="black" d="M291.96,-315C282.31,-315 271.19,-315 260.8,-315"/>
<polygon fill="black" stroke="black" points="260.73,-311.5 250.73,-315 260.73,-318.5 260.73,-311.5"/>
</g>
<!-- Value -->
<g id="node21" class="node">
<title>Value</title>
<polygon fill="#2980b9" stroke="#2980b9" points="149.5,-144 95.5,-144 95.5,-108 149.5,-108 149.5,-144"/>
<text text-anchor="middle" x="122.5" y="-123.5" font-family="Sans" font-size="10.00" fill="#ffffff">Value</text>
</g>
<!-- Value&#45;&gt;Type -->
<g id="edge19" class="edge">
<title>Value&#45;&gt;Type</title>
<path fill="none" stroke="black" d="M98.57,-144C95.53,-146.85 92.57,-149.89 90,-153 69.25,-178.06 51.47,-210.98 40.34,-233.86"/>
<polygon fill="black" stroke="black" points="37.12,-232.46 35.98,-243 43.44,-235.47 37.12,-232.46"/>
</g>
</g>
</svg>
